<?xml version="1.0" encoding="utf-8"?>
<!-- Generator: Adobe Illustrator 17.1.0, SVG Export Plug-In . SVG Version: 6.00 Build 0)  -->
<!DOCTYPE svg PUBLIC "-//W3C//DTD SVG 1.1//EN" "http://www.w3.org/Graphics/SVG/1.1/DTD/svg11.dtd">
<svg version="1.1" id="レイヤー_1" xmlns="http://www.w3.org/2000/svg" xmlns:xlink="http://www.w3.org/1999/xlink" x="0px"
	 y="0px" viewBox="0 0 2386.8 323.1" enable-background="new 0 0 2386.8 323.1" xml:space="preserve">
<text transform="matrix(1 0 0 1 708.121 78.808)"><tspan x="0" y="0" font-family="'HGGothicE'" font-size="71.1652">教えはじめて、学びはじめて</tspan><tspan x="925.1" y="0" font-family="'HGGothicE'" font-size="71.1652" letter-spacing="-35">。</tspan></text>
<text transform="matrix(1 0 0 1 468.0598 289.4108)" fill="#F6CE52" font-family="'HGGothicE'" font-size="239.2408">はじめて教室</text>
<g>
	<path fill="#D6D6D6" d="M21.8,188.4c2.3-2.7,5.4-3.5,8.8-3.5c14.1,0,28.1,0,42.2,0c0.9,0,1.8,0,3,0c0-4.5,0-8.9,0-13.2
		c-16.1-4.4-21.4-16.9-23.2-31.6c-1.8-14.8,2.1-28.2,11.7-39.7c6.5-7.7,15.2-11.7,24.8-13.5c14.7-2.6,29.3-2.8,43.6,2.2
		c16.8,5.9,26,17.9,28.3,35.5c1.4,11.1,0.6,21.8-4.3,32.1c-3.6,7.5-9.1,12.7-17.4,14.5c-0.4,0.1-0.8,0.2-0.8,0.2
		c0,4-0.1,7.9,0.1,11.7c0,0.6,1,1.6,1.6,1.6c22,0.1,44,0,66,0c0.1,0,0.1-0.1,0.5-0.3c0-4.1,0-8.4,0-12.7
		c-15.6-4.2-20.6-16.4-22.5-30.8c-1-7.4-0.7-14.9,1.1-22.2C189,103.8,198,93.5,212.6,89c16.4-5.1,33.1-5.7,49.6-0.5
		c18.7,5.9,29.4,20.3,30.2,39.9c0.4,9,0.2,18-3.6,26.3c-3.9,8.5-9.7,15-19.7,16.9c0,4.1,0,8.3,0,12.8c23,0,46,0,69.2,0
		c0-4.3,0-8.5,0-12.7c-14.8-3.5-20-15-22.7-28c-2.1-10.4-0.7-20.9,3-30.8c4.6-12.2,13.4-20.5,25.8-24.1c16.1-4.7,32.5-5.4,48.7-0.3
		c18.7,5.8,29.1,19.2,30.8,38.7c0.9,10.4-0.2,20.3-4.8,29.8c-3.6,7.3-9,12.4-17.1,14.2c-0.4,0.1-0.8,0.2-1.2,0.4c0,4.4,0,8.7,0,13.4
		c1,0,1.8,0,2.7,0c14.4,0,28.8,0,43.2,0c3.5,0,6.9,0.4,8.8,4c0,1.3,0,2.7,0,4c-1.4,2.9-3.9,4-6.9,4c-5,0.1-10,0.1-15.1,0.1
		c-2.5,0-5,0-7.6,0c-0.1,1-0.1,1.8-0.1,2.5c0,35.7,0,71.4,0,107.1c0,2.9-0.9,5-3.1,6.7c-1.1,0.8-2.2,1.4-3.4,2.1c-0.7,0-1.3,0-2,0
		c-3.2-1.8-4.1-4.7-4.1-8.2c0.1-35.5,0-71,0-106.4c0-1,0-2,0-3.2c-116.4,0-232.7,0-349.4,0c0,0.9,0,1.9,0,2.8
		c0,34.6-0.1,69.3,0.1,103.9c0,5.2-1.5,8.6-5.7,11.1c-1,0-2,0-3,0c-1.1-1.8-2.7-3.4-3.3-5.3c-0.6-2-0.5-4.3-0.5-6.5
		c0-34.6-0.1-69.1,0-103.7c0-1.9-0.1-3.1-2.6-3c-5.8,0.2-11.5,0-17.3,0.1c-3.7,0.1-7.1-0.5-9.9-3.2C21.8,192,21.8,190.2,21.8,188.4z
		 M261.9,171.2c-10.2-5.2-8.7-14.7-2.7-19.7c1.5-1.3,3-2.6,4.6-3.8c3.2-2.4,5.8-5.4,6.1-9.4c0.3-4.8,0.1-9.7-0.3-14.5
		c-0.2-2.7-2.1-3.7-4.7-3.1c-2.4,0.5-4.7,1.3-6.9,2.1c-12.5,4.6-24.9,4.8-37.5,0.3c-2.7-1-5.6-1.6-8.5-2.1c-3.5-0.6-5.2,0.6-5.9,4.1
		c-2,10.5,0.7,19.3,9.8,25.1c0.9,0.6,1.8,1.2,2.7,1.9c6.4,5,5.4,14.4-2,17.9c-0.6,0.3-1.1,0.6-2.1,1.1c5.1,1.3,9.8,2.7,14.5,3.6
		c3.9,0.8,8,1.9,11.8,1.3C247.9,175,254.8,172.9,261.9,171.2z M393.4,171.2c0-0.2,0-0.5,0-0.7c-0.3-0.2-0.6-0.3-0.9-0.5
		c-7.8-4.3-8.9-11.5-2.6-17.6c2.5-2.5,5.2-4.7,7.9-7c2.8-2.4,4.3-5.2,4.1-9c-0.1-3,0-6-0.1-9c-0.1-6-2.2-7.5-7.9-6
		c-6,1.6-12,3.5-18.1,4.8c-3.2,0.7-6.6,0.5-9.9,0.2c-2.4-0.2-4.7-1.1-7.1-1.7c-5.3-1.3-10.5-2.7-15.8-3.7c-3-0.6-4.2,0.4-5.1,3.1
		c-2.7,8.4,0.1,18.5,6.9,24.2c1.9,1.6,3.9,2.8,5.8,4.4c5.9,4.9,4.8,13.6-2.1,17c-0.8,0.4-1.6,0.7-2.8,1.3c5.4,1.4,10.2,2.7,15.1,3.7
		c3.7,0.8,7.7,1.9,11.3,1.3C379.3,175,386.3,172.9,393.4,171.2z M130.3,170.4c-0.4-0.2-1-0.6-1.5-0.9c-6.7-4.3-7.6-11-2-16.6
		c2.3-2.3,4.8-4.4,7.3-6.5c2.5-2.1,4.8-4.6,5-7.8c0.3-4.6,0.2-9.2-0.3-13.7c-0.3-3.4-2.1-4.5-5.4-3.8c-3.5,0.7-7,1.6-10.4,2.8
		c-9.8,3.5-19.5,3.9-29.4,0.5c-3.8-1.3-7.7-2.1-11.6-3.1c-4-1-6-0.1-6.7,3.1c-2.1,8.9-0.5,18.3,7.8,24.8c1.5,1.1,3,2.1,4.5,3.2
		c6.3,5.1,5.4,13.8-1.9,17.4c-0.6,0.3-1.2,0.6-1.6,0.8C99.5,177.6,115,177.9,130.3,170.4z"/>
	<path fill="#D6D6D6" d="M114.1,10.1c1.4,0.4,2.9,0.8,4.3,1.2c15.2,4.4,26.2,19.5,25.2,34.6c-1.1,16.6-13.8,30.5-30,32.9
		c-18.2,2.6-36.7-12.2-38.2-30.6c-1.5-18.7,9.8-33.8,28.2-37.7c0.3-0.1,0.6-0.3,0.9-0.4C107.8,10.1,111,10.1,114.1,10.1z"/>
	<path fill="#D6D6D6" d="M376.8,10.1c6.2,1.4,11.9,3.7,16.9,7.8c11.6,9.5,15.8,25.5,10.3,39.2c-5.8,14.3-20.2,23.2-35.2,21.8
		c-16-1.5-29.6-15.8-30.7-31.5c-1.3-18.5,11.7-33.5,27.6-36.7c0.6-0.1,1.1-0.3,1.6-0.5C370.4,10.1,373.6,10.1,376.8,10.1z"/>
	<path fill="#D6D6D6" d="M245.2,10.1c1.6,0.4,3.2,0.8,4.8,1.3c15.2,4.7,25.9,19.7,24.7,34.7c-1.3,17.1-13.8,30.5-30.4,32.7
		C227.3,81.1,210.1,68.3,207,51c-3.4-19.2,8.5-36.6,27.7-40.5c0.3-0.1,0.6-0.3,0.9-0.4C238.8,10.1,242,10.1,245.2,10.1z"/>
	<path fill="#98C574" d="M261.9,171.2c-7,1.7-14,3.8-21.1,4.9c-3.8,0.6-7.9-0.6-11.8-1.3c-4.7-0.9-9.4-2.3-14.5-3.6
		c1-0.5,1.5-0.8,2.1-1.1c7.4-3.5,8.4-12.9,2-17.9c-0.9-0.7-1.8-1.3-2.7-1.9c-9-5.8-11.8-14.6-9.8-25.1c0.7-3.5,2.4-4.7,5.9-4.1
		c2.9,0.5,5.8,1.1,8.5,2.1c12.6,4.5,25,4.3,37.5-0.3c2.3-0.8,4.6-1.6,6.9-2.1c2.7-0.6,4.5,0.4,4.7,3.1c0.4,4.8,0.6,9.7,0.3,14.5
		c-0.3,4-2.8,7-6.1,9.4c-1.6,1.2-3.1,2.5-4.6,3.8C253.2,156.5,251.7,166,261.9,171.2z"/>
	<path fill="#98C574" d="M393.4,171.2c-7.1,1.7-14.2,3.8-21.4,4.9c-3.6,0.5-7.6-0.6-11.3-1.3c-4.9-1-9.7-2.4-15.1-3.7
		c1.3-0.6,2.1-0.9,2.8-1.3c6.9-3.4,8-12.1,2.1-17c-1.9-1.6-3.9-2.8-5.8-4.4c-6.8-5.7-9.6-15.8-6.9-24.2c0.9-2.7,2.1-3.7,5.1-3.1
		c5.3,1.1,10.6,2.5,15.8,3.7c2.4,0.6,4.7,1.5,7.1,1.7c3.3,0.3,6.7,0.4,9.9-0.2c6.1-1.3,12.1-3.2,18.1-4.8c5.7-1.5,7.7,0,7.9,6
		c0.1,3-0.1,6,0.1,9c0.2,3.7-1.3,6.6-4.1,9c-2.7,2.3-5.4,4.5-7.9,7c-6.3,6.2-5.2,13.3,2.6,17.6c0.3,0.2,0.6,0.3,0.9,0.5
		C393.4,170.7,393.4,171,393.4,171.2z"/>
	<path fill="#98C574" d="M130.3,170.4c-15.4,7.5-30.9,7.2-46.4,0.2c0.4-0.2,1-0.5,1.6-0.8c7.3-3.6,8.3-12.3,1.9-17.4
		c-1.4-1.2-3-2.1-4.5-3.2c-8.3-6.5-9.9-15.9-7.8-24.8c0.7-3.2,2.7-4.1,6.7-3.1c3.9,0.9,7.8,1.8,11.6,3.1c9.9,3.4,19.6,3.1,29.4-0.5
		c3.4-1.2,6.9-2.1,10.4-2.8c3.3-0.7,5.1,0.4,5.4,3.8c0.4,4.6,0.6,9.2,0.3,13.7c-0.2,3.3-2.4,5.7-5,7.8c-2.5,2.1-5,4.2-7.3,6.5
		c-5.5,5.6-4.7,12.3,2,16.6C129.4,169.8,129.9,170.2,130.3,170.4z"/>
</g>
</svg>
